:SAMPLES-PER-SECOND 30
:FULLY-SPECIFIED
:DEGREES
125
root  9.68056 33.0612 -24.2982 -115.176 -82.2503 114.756
RightUpLeg  -52.676 -11.5218 -12.1701
RightLeg  54.9166 1.71899 2.21108
RightFoot  -0.291673 -0.310003 3.18016
RightToes  0.000482159 0.542163 -0.142577
Spine  58.4655 -6.45193 18.5416
Spine1  0.0951087 2.64623 5.57285
HEad  -71.9068 49.9762 -53.2128
LeftShoulder1  11.4489 -16.4351 -50.1306
LeftArm  -8.4851 3.25269 -28.1795
LeftForeArm  55.8763 -62.3607 -16.0409
LeftHand  -0.25398 0.0180481 5.50724
RightShoulder  4.73155 10.5422 27.6649
RightArm  -30.6978 9.81945 13.6063
RightForeArm  9.50778 64.2764 23.4309
RightHand  -3.43149 8.30398 -28.9103
LeftUpLeg  -50.8389 -7.02846 -6.22217
LeftLeg  50.1429 4.54526 6.27451
LeftFoot  1.37503 -0.170101 1.46513
LeftToes  1.06246e-005 4.65855e-005 -8.18502e-006
126
root  9.4147 33.5767 -24.5437 -113.279 -82.1304 113.763
RightUpLeg  -51.8422 -11.845 -11.7187
RightLeg  53.0979 1.5523 1.82357
RightFoot  -0.728236 -0.278079 2.93972
RightToes  0.000482159 0.542163 -0.142577
Spine  58.1713 -6.72544 18.0262
Spine1  0.658876 2.12101 4.73476
HEad  -72.0486 49.6175 -53.9478
LeftShoulder1  11.4515 -16.4601 -50.0795
LeftArm  -9.6157 2.55454 -28.156
LeftForeArm  61.1961 -67.093 -19.9743
LeftHand  -0.25398 0.0180481 5.50724
RightShoulder  4.81385 10.6435 28.0159
RightArm  -30.1528 12.0575 16.1161
RightForeArm  7.70522 62.8091 21.9728
RightHand  -3.61153 8.74971 -29.4443
LeftUpLeg  -49.636 -6.48203 -6.1777
LeftLeg  47.1672 4.00689 5.03614
LeftFoot  2.47182 -0.147496 1.0873
LeftToes  1.06246e-005 4.65855e-005 -8.18502e-006
127
root  9.21264 34.1226 -24.8149 -108.507 -82.1808 109.909
RightUpLeg  -50.6715 -12.4906 -11.254
RightLeg  50.6377 1.34655 1.3884
RightFoot  -0.453012 -0.282224 2.92589
RightToes  0.000482159 0.542163 -0.142577
Spine  57.6054 -6.80095 17.1751
Spine1  1.22278 1.50079 4.27386
HEad  -70.8996 49.0196 -53.5436
LeftShoulder1  11.4028 -16.4652 -49.8548
LeftArm  -10.3418 2.43171 -28.0472
LeftForeArm  65.689 -70.5487 -24.143
LeftHand  -0.25398 0.0180481 5.50724
RightShoulder  4.81785 10.5565 28.2625
RightArm  -29.3769 14.5386 18.99
RightForeArm  6.85381 60.8696 20.1113
RightHand  -3.73656 9.15146 -29.6157
LeftUpLeg  -48.3556 -5.14945 -6.60144
LeftLeg  44.4089 3.55163 4.12507
LeftFoot  3.41186 -0.198002 1.37028
LeftToes  1.06246e-005 4.65855e-005 -8.18502e-006
128
root  9.05015 34.6646 -25.0881 -101.808 -82.2773 104.164
RightUpLeg  -49.5187 -13.4797 -10.7146
RightLeg  47.8983 1.30567 1.20317
RightFoot  0.502888 -0.287289 2.80483
RightToes  0.000482159 0.542163 -0.142577
Spine  56.8805 -6.90455 16.4261
Spine1  1.56925 1.02642 3.4671
HEad  -68.813 48.0568 -52.4578
LeftShoulder1  11.3149 -16.4384 -49.5378
LeftArm  -10.7125 2.78028 -27.8959
LeftForeArm  67.4032 -72.2091 -26.964
LeftHand  -0.25398 0.0180481 5.50724
RightShoulder  4.8588 10.3878 28.9912
RightArm  -28.1813 16.2121 21.3491
RightForeArm  6.6078 59.6804 19.0778
RightHand  -3.82095 9.50004 -29.5803
LeftUpLeg  -46.9699 -4.00753 -6.92655
LeftLeg  41.1444 2.27716 2.54013
LeftFoot  3.7176 -0.16548 1.08313
LeftToes  1.06246e-005 4.65855e-005 -8.18502e-006
129
root  8.92259 35.1932 -25.3406 -94.8158 -82.4509 97.8744
RightUpLeg  -48.2252 -14.5549 -10.0391
RightLeg  45.1906 1.291 1.0726
RightFoot  1.24087 -0.243253 2.28133
RightToes  0.000482159 0.542163 -0.142577
Spine  56.2313 -7.00581 15.9714
Spine1  1.80876 0.748496 2.48969
HEad  -66.3498 46.6918 -51.1004
LeftShoulder1  11.2675 -16.3875 -49.4565
LeftArm  -11.0691 3.28064 -27.6782
LeftForeArm  67.1752 -72.2134 -27.0414
LeftHand  -0.25398 0.0180481 5.50724
RightShoulder  4.98124 10.328 30.0482
RightArm  -26.6508 16.7462 22.9878
RightForeArm  6.54245 59.663 19.0761
RightHand  -3.86018 9.6744 -29.5422
LeftUpLeg  -45.2632 -2.9212 -7.1001
LeftLeg  37.2196 0.305977 0.615894
LeftFoot  4.22958 0.00150084 -0.191642
LeftToes  1.06246e-005 4.65855e-005 -8.18502e-006
130
root  8.84074 35.6736 -25.5761 -85.1897 -82.5987 88.6257
RightUpLeg  -46.6331 -15.7489 -9.49347
RightLeg  42.6058 1.11177 0.793985
RightFoot  1.63145 -0.207268 1.9187
RightToes  0.000482159 0.542163 -0.142577
Spine  55.5641 -6.99952 15.5902
Spine1  2.03651 0.523753 1.86923
HEad  -63.3295 44.9836 -49.1473
LeftShoulder1  11.2985 -16.3261 -49.746
LeftArm  -11.3493 3.66458 -27.3522
LeftForeArm  65.276 -70.607 -24.3702
LeftHand  -0.25398 0.0180481 5.50724
RightShoulder  5.05805 10.3167 30.6426
RightArm  -25.0147 16.4153 24.6885
RightForeArm  7.31949 60.2654 19.5182
RightHand  -3.79209 9.515 -29.3416
LeftUpLeg  -43.566 -0.862806 -7.80631
LeftLeg  34.0753 0.134373 0.436485
LeftFoot  4.6856 0.202272 -1.64502
LeftToes  1.06246e-005 4.65855e-005 -8.18502e-006
131
root  8.80095 36.0724 -25.7803 -72.4007 -82.432 76.0891
RightUpLeg  -45.046 -17.242 -9.15987
RightLeg  40.2475 0.952071 0.574799
RightFoot  2.18043 -0.215589 1.94289
RightToes  0.000482159 0.542163 -0.142577
Spine  54.7018 -6.95424 15.1629
Spine1  2.20917 0.313539 1.41251
HEad  -59.702 42.8504 -46.5319
LeftShoulder1  11.3752 -16.2727 -50.2166
LeftArm  -11.3381 4.03729 -26.8244
LeftForeArm  61.738 -67.561 -20.4862
LeftHand  -0.25398 0.0180481 5.50724
RightShoulder  5.06922 10.2696 30.8518
RightArm  -23.4081 15.5733 26.5342
RightForeArm  8.9242 60.9245 19.9433
RightHand  -3.61241 9.09615 -28.7874
LeftUpLeg  -42.2967 2.34266 -9.14623
LeftLeg  33.0009 2.92648 2.41046
LeftFoot  3.91257 0.321457 -2.58339
LeftToes  1.06246e-005 4.65855e-005 -8.18502e-006
132
root  8.78524 36.39 -25.918 -60.1865 -82.0689 64.0418
RightUpLeg  -43.6941 -18.8373 -8.71233
RightLeg  38.2307 0.976343 0.548907
RightFoot  2.91906 -0.199948 1.75972
RightToes  0.000482159 0.542163 -0.142577
Spine  53.7746 -6.93397 14.8543
Spine1  2.3 0.206764 0.769027
HEad  -56.1042 40.2631 -44.0583
LeftShoulder1  11.4374 -16.237 -50.5797
LeftArm  -11.1505 4.65711 -26.1885
LeftForeArm  57.6289 -63.5913 -16.8598
LeftHand  -0.25398 0.0180481 5.50724
RightShoulder  5.16959 10.2689 31.5875
RightArm  -21.8424 14.5928 27.5388
RightForeArm  10.4448 61.503 20.3215
RightHand  -3.36343 8.53254 -27.9303
LeftUpLeg  -41.3323 5.63422 -10.1291
LeftLeg  34.026 6.08094 4.76328
LeftFoot  2.1648 0.336622 -2.94849
LeftToes  1.06246e-005 4.65855e-005 -8.18502e-006
